{
  "accessors": [
    {
      "name": "Leaf Starwberry_1_0_positions",
      "componentType": 5126,
      "count": 25258,
      "min": [
        -1.7684650421142578,
        -1.7496089935302734,
        4.5409722328186035
      ],
      "max": [
        1.7284729480743408,
        1.8102279901504517,
        6.1966328620910645
      ],
      "type": "VEC3",
      "bufferView": 0,
      "byteOffset": 0
    },
    {
      "name": "Leaf Starwberry_1_0_normals",
      "componentType": 5126,
      "count": 25258,
      "min": [
        -0.9999367594718933,
        -0.998028039932251,
        -0.9999952912330627
      ],
      "max": [
        0.9999933242797852,
        0.9998521208763123,
        0.9999830722808838
      ],
      "type": "VEC3",
      "bufferView": 1,
      "byteOffset": 0
    },
    {
      "name": "Leaf Starwberry_1_0_texcoords",
      "componentType": 5126,
      "count": 25258,
      "min": [
        0,
        0
      ],
      "max": [
        1,
        1
      ],
      "type": "VEC2",
      "bufferView": 2,
      "byteOffset": 0
    },
    {
      "name": "Leaf Starwberry_1_0_indices",
      "componentType": 5123,
      "count": 142176,
      "min": [
        0
      ],
      "max": [
        25257
      ],
      "type": "SCALAR",
      "bufferView": 3,
      "byteOffset": 0
    },
    {
      "name": "Starwberry Fruit_1_0_positions",
      "componentType": 5126,
      "count": 7865,
      "min": [
        -2.0468668937683105,
        -1.9224170446395874,
        -0.07585500180721283
      ],
      "max": [
        2.119662046432495,
        2.2350199222564697,
        4.932755947113037
      ],
      "type": "VEC3",
      "bufferView": 0,
      "byteOffset": 303096
    },
    {
      "name": "Starwberry Fruit_1_0_normals",
      "componentType": 5126,
      "count": 7865,
      "min": [
        -0.9996929168701172,
        -0.9999043941497803,
        -0.9997159242630005
      ],
      "max": [
        0.9998564720153809,
        0.9997780919075012,
        0.9630746245384216
      ],
      "type": "VEC3",
      "bufferView": 1,
      "byteOffset": 303096
    },
    {
      "name": "Starwberry Fruit_1_0_texcoords",
      "componentType": 5126,
      "count": 7865,
      "min": [
        0.0020520000252872705,
        0.0008559999987483025
      ],
      "max": [
        0.8428009748458862,
        0.9971200227737427
      ],
      "type": "VEC2",
      "bufferView": 2,
      "byteOffset": 202064
    },
    {
      "name": "Starwberry Fruit_1_0_indices",
      "componentType": 5123,
      "count": 44397,
      "min": [
        0
      ],
      "max": [
        7864
      ],
      "type": "SCALAR",
      "bufferView": 3,
      "byteOffset": 284352
    }
  ],
  "asset": {
    "generator": "obj2gltf",
    "version": "2.0"
  },
  "buffers": [
    {
      "name": "strawberry",
      "byteLength": 2261048,
      "uri": "data:application/octet-stream;base64,"
    }
  ],
  "bufferViews": [
    {
      "name": "bufferView_0",
      "buffer": 0,
      "byteLength": 397476,
      "byteOffset": 0,
      "byteStride": 12,
      "target": 34962
    },
    {
      "name": "bufferView_1",
      "buffer": 0,
      "byteLength": 397476,
      "byteOffset": 397476,
      "byteStride": 12,
      "target": 34962
    },
    {
      "name": "bufferView_2",
      "buffer": 0,
      "byteLength": 264984,
      "byteOffset": 794952,
      "byteStride": 8,
      "target": 34962
    },
    {
      "name": "bufferView_3",
      "buffer": 0,
      "byteLength": 373148,
      "byteOffset": 1059936,
      "target": 34963
    },
    {
      "buffer": 0,
      "byteOffset": 1433084,
      "byteLength": 827964
    }
  ],
  "images": [
    {
      "name": "strawberry",
      "mimeType": "image/jpeg",
      "bufferView": 4
    }
  ],
  "materials": [
    {
      "name": "blinn1SG",
      "pbrMetallicRoughness": {
        "baseColorTexture": {
          "index": 0
        },
        "baseColorFactor": [
          1,
          1,
          1,
          1
        ],
        "metallicFactor": 0,
        "roughnessFactor": 1
      },
      "emissiveFactor": [
        0,
        0,
        0
      ],
      "alphaMode": "OPAQUE",
      "doubleSided": false
    }
  ],
  "meshes": [
    {
      "name": "Leaf Starwberry_1",
      "primitives": [
        {
          "attributes": {
            "POSITION": 0,
            "NORMAL": 1,
            "TEXCOORD_0": 2
          },
          "indices": 3,
          "material": 0,
          "mode": 4
        }
      ]
    },
    {
      "name": "Starwberry Fruit_1",
      "primitives": [
        {
          "attributes": {
            "POSITION": 4,
            "NORMAL": 5,
            "TEXCOORD_0": 6
          },
          "indices": 7,
          "material": 0,
          "mode": 4
        }
      ]
    }
  ],
  "nodes": [
    {
      "name": "Leaf Starwberry",
      "mesh": 0
    },
    {
      "name": "Starwberry Fruit",
      "mesh": 1
    }
  ],
  "samplers": [
    {
      "wrapS": 10497,
      "wrapT": 10497
    }
  ],
  "scene": 0,
  "scenes": [
    {
      "nodes": [
        0,
        1
      ]
    }
  ],
  "textures": [
    {
      "name": "strawberry",
      "sampler": 0,
      "source": 0
    }
  ]
}
